<?xml version="1.0" standalone="no"?>
<!DOCTYPE svg PUBLIC "-//W3C//DTD SVG 20010904//EN"
 "http://www.w3.org/TR/2001/REC-SVG-20010904/DTD/svg10.dtd">
<svg version="1.0" xmlns="http://www.w3.org/2000/svg"
 width="699.000000pt" height="675.000000pt" viewBox="0 0 699.000000 675.000000"
 preserveAspectRatio="xMidYMid meet">

<g transform="translate(0.000000,675.000000) scale(0.100000,-0.100000)"
fill="#000000" stroke="none">
<path d="M3289 6712 c-25 -16 -78 -66 -119 -112 -86 -95 -139 -133 -305 -220
-190 -100 -278 -165 -427 -318 -114 -116 -141 -150 -174 -217 l-39 -80 -202 3
c-295 5 -357 -8 -615 -129 -222 -104 -279 -121 -428 -126 -69 -2 -136 -6 -149
-9 -28 -6 -157 -127 -177 -167 -11 -21 -14 -66 -14 -185 1 -138 -3 -178 -32
-332 -31 -166 -33 -187 -33 -405 0 -257 8 -303 81 -448 l35 -68 -100 -95
c-224 -213 -303 -363 -371 -709 -37 -185 -61 -246 -129 -324 -83 -96 -86 -106
-86 -271 0 -139 1 -147 27 -190 50 -86 152 -167 248 -199 55 -18 118 -75 260
-233 262 -294 456 -426 656 -445 l61 -6 6 -136 c11 -233 48 -330 224 -581 183
-262 205 -305 239 -458 16 -76 17 -78 103 -165 l87 -87 149 0 c138 0 153 2
214 27 61 25 81 27 266 34 222 8 305 18 446 54 167 42 343 125 428 201 27 24
52 44 55 44 4 0 39 -24 78 -54 134 -103 326 -180 538 -217 71 -13 193 -23 320
-28 190 -7 210 -10 269 -34 60 -25 75 -27 214 -27 l149 0 79 76 c83 81 89 92
129 238 30 111 60 165 204 371 196 279 232 369 243 611 l6 132 62 6 c107 11
227 61 340 141 59 42 348 330 415 413 46 58 113 106 186 133 45 17 77 40 137
98 111 107 117 122 117 278 0 153 -9 176 -99 284 -67 80 -86 127 -115 284 -67
362 -155 532 -389 750 l-89 83 41 83 c69 145 76 185 76 434 0 207 -2 230 -33
395 -30 156 -33 193 -32 337 0 123 -3 169 -14 190 -8 16 -45 58 -83 95 -79 75
-79 75 -253 81 -137 5 -200 24 -423 128 -258 120 -314 132 -612 127 l-205 -3
-11 33 c-22 65 -110 179 -231 298 -138 136 -191 174 -380 276 -183 98 -208
116 -333 239 -60 59 -123 113 -138 118 -16 6 -90 11 -166 11 -134 0 -138 -1
-182 -28z m239 -310 c173 -184 189 -196 415 -321 225 -123 304 -182 388 -288
82 -102 118 -200 135 -361 9 -83 28 -107 86 -107 34 0 53 7 83 31 90 71 198
104 340 104 129 0 236 -30 414 -114 239 -114 317 -137 481 -145 l135 -6 -3
-35 c-11 -144 -4 -241 32 -430 46 -235 53 -386 22 -485 -37 -119 -109 -239
-219 -362 -54 -61 -63 -85 -47 -123 14 -33 53 -54 140 -76 93 -22 155 -59 236
-139 146 -144 218 -303 269 -593 30 -177 64 -257 150 -353 51 -57 56 -66 53
-103 -3 -45 -12 -51 -109 -86 -78 -28 -177 -115 -331 -292 -138 -157 -208
-223 -306 -286 -132 -85 -286 -111 -437 -73 -72 18 -82 18 -103 5 -35 -23 -36
-35 -8 -122 48 -152 50 -329 7 -471 -26 -85 -91 -193 -182 -305 -108 -133
-197 -304 -233 -447 -27 -106 -39 -120 -88 -100 -103 42 -116 44 -318 52 -113
4 -248 15 -300 23 -278 45 -499 155 -611 302 -50 66 -100 104 -137 104 -42 0
-95 -39 -145 -106 -152 -204 -499 -324 -939 -324 -127 0 -202 -12 -260 -41
-21 -11 -48 -19 -62 -19 -27 0 -24 -6 -61 140 -18 69 -68 176 -118 250 -17 25
-70 101 -118 170 -170 244 -201 325 -201 520 -1 110 3 138 30 230 32 109 31
129 -7 150 -14 7 -42 4 -102 -11 -155 -40 -300 -13 -446 83 -80 52 -129 100
-376 361 -136 144 -154 159 -225 193 -42 19 -88 41 -102 48 -20 9 -26 20 -28
53 -3 38 2 46 54 105 89 99 114 162 154 378 39 214 88 343 175 465 93 129 204
211 328 240 86 21 121 40 136 73 16 35 6 57 -64 142 -123 150 -182 257 -210
385 -23 104 -17 203 31 455 35 188 41 267 32 415 l-3 40 130 6 c172 9 241 30
505 154 184 86 235 99 395 100 159 0 214 -15 317 -85 81 -55 124 -64 158 -30
22 22 26 34 40 144 15 117 50 206 114 291 90 119 177 185 416 314 178 97 238
140 342 250 95 101 114 108 156 63z"/>
<path d="M3395 6146 c-52 -53 -105 -92 -205 -150 -414 -244 -470 -300 -516
-518 -17 -83 -10 -98 46 -98 121 0 228 85 518 413 97 111 192 217 210 236 l32
36 33 -35 c17 -20 91 -103 162 -185 312 -359 441 -465 565 -465 51 0 60 14 49
73 -25 137 -69 228 -143 293 -55 50 -199 147 -326 219 -140 80 -223 140 -277
199 -29 31 -57 55 -65 55 -7 -1 -45 -34 -83 -73z"/>
<path d="M3458 5853 c-26 -7 -623 -733 -996 -1213 -368 -473 -962 -1279 -962
-1306 0 -30 246 -496 347 -657 l30 -48 -55 -127 c-94 -221 -152 -370 -152
-395 0 -33 11 -41 110 -77 70 -26 438 -142 557 -176 27 -8 55 -44 196 -254
112 -167 172 -248 188 -254 20 -7 96 19 392 133 l367 142 87 -34 c274 -108
643 -247 657 -247 25 0 49 32 213 276 l154 230 117 34 c221 63 556 179 569
196 7 10 13 26 13 37 0 17 -116 307 -183 457 l-24 55 95 165 c155 269 284 527
276 552 -7 24 -42 73 -257 368 -441 602 -890 1182 -1366 1760 -251 305 -301
363 -325 377 -22 13 -22 13 -48 6z m57 -341 c16 -37 84 -182 152 -321 140
-289 165 -351 193 -490 24 -118 25 -190 5 -331 -27 -185 -72 -315 -149 -429
-20 -29 -36 -56 -36 -59 0 -19 82 79 148 177 88 130 151 192 237 232 84 40
162 52 275 45 157 -10 273 -50 336 -118 27 -28 300 -392 372 -495 41 -59 16
-73 -47 -25 -87 68 -203 116 -314 131 -123 17 -309 -13 -458 -74 -141 -57
-338 -224 -433 -368 -40 -61 -106 -197 -106 -218 0 -7 28 15 63 50 175 175
438 197 700 59 79 -42 217 -178 282 -278 50 -77 144 -257 182 -347 l21 -52
-54 -51 c-88 -83 -172 -110 -349 -110 -334 0 -642 110 -837 298 -51 49 -54 49
-37 -13 33 -120 132 -268 274 -411 147 -148 298 -262 458 -344 37 -19 67 -38
67 -41 0 -3 -59 -19 -132 -37 l-132 -31 -90 57 c-238 150 -490 414 -584 613
-20 43 -39 79 -42 79 -3 0 -14 -21 -25 -48 -33 -81 -149 -243 -255 -354 -116
-123 -227 -216 -351 -293 l-86 -53 -79 18 c-153 35 -184 43 -184 50 0 3 17 14
38 24 335 159 726 562 768 793 l7 38 -54 -51 c-209 -196 -538 -305 -880 -292
-156 6 -215 27 -299 104 l-59 55 35 82 c108 253 257 467 388 556 125 86 250
125 401 124 166 0 264 -39 373 -150 28 -30 52 -50 52 -44 0 5 -13 39 -30 75
-90 202 -271 391 -465 489 -134 67 -271 98 -423 98 -151 -1 -276 -42 -391
-130 -55 -41 -77 -44 -68 -10 3 11 94 138 204 284 182 243 203 267 253 294
155 83 396 93 543 23 87 -41 147 -98 232 -221 40 -58 90 -124 110 -146 l37
-40 -22 40 c-13 22 -35 63 -51 91 -71 125 -112 307 -113 504 -1 214 22 291
191 640 66 135 137 284 159 332 21 48 41 88 44 88 3 0 18 -31 35 -68z m-213
-43 c-17 -35 -69 -145 -117 -244 -48 -99 -112 -231 -142 -294 -30 -63 -90
-189 -134 -279 -43 -91 -79 -167 -79 -171 0 -3 -4 -12 -8 -19 -6 -9 -18 -7
-50 8 -58 28 -148 50 -204 50 -26 0 -48 3 -48 8 0 16 800 1013 808 1007 2 -2
-10 -31 -26 -66z m597 -259 c240 -294 541 -675 541 -684 0 -3 -20 -6 -45 -6
-60 0 -137 -17 -200 -46 l-53 -23 -22 50 c-11 28 -127 269 -255 536 -129 267
-235 489 -235 492 1 9 36 -33 269 -319z m-1543 -1461 c32 -6 63 -14 67 -19 5
-4 -48 -113 -118 -241 -69 -129 -181 -345 -248 -481 -67 -137 -124 -248 -127
-248 -7 0 -206 361 -263 476 l-45 90 103 143 c123 171 121 169 137 153 23 -23
65 -12 139 38 76 52 135 76 217 90 68 11 72 11 138 -1z m2458 -16 c34 -10 92
-39 138 -70 80 -53 122 -65 146 -41 15 15 11 20 136 -152 l105 -145 -78 -151
c-43 -83 -113 -212 -156 -286 l-77 -135 -168 336 c-93 185 -207 404 -253 486
-93 165 -93 160 -9 175 58 10 138 4 216 -17z m-2810 -1316 c27 -45 98 -158
158 -251 60 -93 107 -170 105 -172 -3 -3 -292 87 -404 126 -35 12 -63 25 -63
29 0 8 106 271 131 324 6 15 15 27 18 27 3 -1 28 -38 55 -83z m3068 -49 c77
-182 91 -218 86 -223 -12 -13 -459 -157 -466 -151 -1 2 48 84 111 182 62 99
133 211 158 251 24 40 47 72 50 73 3 0 31 -60 61 -132z m-1582 -66 c0 -5 28
-46 61 -93 68 -93 255 -288 337 -351 29 -23 49 -44 45 -48 -13 -12 -393 -73
-453 -73 -59 0 -440 61 -453 72 -4 4 22 31 57 59 99 81 276 270 337 360 50 75
69 95 69 74z m-835 -531 c103 -26 464 -98 533 -107 55 -7 67 -18 29 -28 -13
-3 -121 -43 -240 -90 l-218 -84 -72 106 c-109 163 -147 221 -147 227 0 4 8 4
18 1 9 -3 53 -15 97 -25z m1765 23 c0 -3 -49 -79 -110 -168 l-110 -164 -227
88 c-126 48 -237 90 -248 95 -14 5 10 13 86 25 144 25 439 86 524 109 82 22
85 23 85 15z"/>
<path d="M3439 4908 c-85 -168 -114 -332 -106 -588 6 -197 18 -280 49 -354 23
-54 87 -156 97 -156 12 0 73 99 96 157 37 92 49 190 50 403 0 210 -9 285 -52
410 -28 83 -81 190 -94 190 -5 0 -23 -28 -40 -62z"/>
<path d="M1860 5291 c-30 -10 -100 -37 -155 -61 -241 -103 -394 -150 -493
-151 -105 -1 -108 -5 -115 -160 -3 -68 -15 -180 -28 -249 -31 -175 -31 -325
-1 -410 30 -86 129 -234 160 -238 19 -3 27 8 61 80 21 46 73 142 115 213 76
128 77 131 72 185 -3 30 -9 107 -12 171 l-7 116 39 6 c21 4 92 7 157 7 l118 0
104 99 c89 84 155 138 333 268 17 13 32 30 32 38 0 18 -78 72 -131 90 -57 20
-181 18 -249 -4z"/>
<path d="M4837 5290 c-62 -24 -117 -66 -117 -89 0 -11 23 -33 58 -56 96 -63
222 -165 319 -257 l92 -88 118 0 c65 0 135 -3 156 -6 l37 -7 0 -76 c0 -42 -6
-116 -14 -164 l-13 -89 84 -146 c46 -81 99 -179 118 -219 44 -94 58 -95 119
-9 65 91 107 186 119 271 11 74 5 133 -44 440 -4 28 -8 93 -8 146 -1 130 -3
132 -128 140 -108 7 -221 41 -420 125 -197 84 -266 104 -351 104 -51 -1 -93
-7 -125 -20z"/>
<path d="M2520 5138 c-105 -48 -231 -115 -281 -149 -209 -142 -477 -415 -626
-639 -175 -263 -261 -452 -332 -735 -35 -135 -38 -170 -16 -179 19 -7 36 12
143 157 240 328 488 653 647 847 97 118 215 267 263 330 48 63 131 168 185
234 53 66 96 124 94 130 -5 15 -47 17 -77 4z"/>
<path d="M4364 5135 c-4 -9 26 -52 76 -112 45 -54 137 -170 204 -258 68 -88
201 -254 296 -370 175 -214 276 -346 551 -720 85 -115 162 -218 173 -229 16
-16 20 -17 34 -2 14 14 13 25 -7 118 -52 232 -138 448 -264 658 -115 194 -208
311 -382 485 -225 226 -355 321 -556 410 -87 38 -117 43 -125 20z"/>
<path d="M1018 3501 c-171 -68 -261 -218 -333 -552 -48 -221 -68 -275 -132
-352 -12 -16 -23 -41 -23 -57 0 -30 5 -35 92 -91 26 -17 92 -81 148 -144 200
-225 362 -360 483 -401 33 -12 82 -19 134 -19 77 0 84 2 110 27 l27 28 -24 32
c-113 152 -179 265 -263 449 -30 67 -40 79 -88 108 -68 42 -139 99 -139 113 0
5 27 49 60 96 l60 87 -12 95 c-9 80 -12 417 -5 555 2 36 0 40 -23 42 -14 1
-46 -6 -72 -16z"/>
<path d="M5847 3513 c-3 -5 -2 -74 3 -153 8 -135 -1 -405 -15 -496 -7 -38 -3
-46 40 -105 57 -77 78 -116 70 -130 -9 -14 -103 -82 -152 -109 -32 -17 -45
-33 -59 -69 -48 -128 -142 -294 -264 -464 l-34 -47 27 -28 c26 -25 33 -27 115
-26 104 1 157 19 264 90 76 51 238 205 379 363 52 58 103 105 136 123 59 34
84 62 76 87 -4 9 -21 36 -38 61 -56 78 -73 123 -110 290 -79 362 -157 511
-308 584 -59 30 -121 43 -130 29z"/>
<path d="M1234 3295 c-4 -9 -1 -78 5 -153 27 -305 60 -467 136 -675 53 -145
66 -167 90 -152 16 10 155 336 155 363 0 7 -41 78 -91 158 -49 79 -127 217
-172 307 -80 158 -108 192 -123 152z"/>
<path d="M5682 3298 c-5 -7 -46 -85 -90 -173 -45 -88 -117 -216 -161 -285 -44
-69 -85 -132 -90 -141 -7 -12 8 -61 60 -190 75 -184 83 -199 106 -199 33 0
141 314 172 500 29 176 57 460 47 485 -7 18 -30 20 -44 3z"/>
<path d="M1767 1853 c-4 -3 -7 -14 -7 -23 0 -24 253 -295 345 -369 139 -112
337 -236 361 -227 30 12 18 41 -109 261 -126 220 -118 210 -184 233 -32 11
-129 45 -217 76 -160 57 -177 61 -189 49z"/>
<path d="M5085 1835 c-297 -106 -355 -129 -368 -143 -7 -10 -64 -106 -125
-214 -150 -264 -149 -287 12 -191 192 114 356 256 539 465 89 102 70 128 -58
83z"/>
<path d="M1772 1527 c-19 -22 -32 -98 -32 -185 0 -162 98 -373 265 -567 31
-36 55 -74 59 -95 4 -19 21 -64 39 -100 l32 -65 105 1 c302 4 473 13 551 29
165 34 284 93 377 188 79 80 73 88 -68 109 -147 22 -276 51 -368 82 -67 23
-75 24 -120 11 -58 -17 -228 -38 -251 -30 -20 6 -72 99 -107 191 -14 38 -32
73 -40 77 -39 22 -202 162 -300 258 -61 60 -116 109 -121 109 -6 0 -15 -6 -21
-13z"/>
<path d="M5027 1413 c-74 -70 -170 -155 -215 -188 -73 -55 -83 -65 -103 -120
-28 -77 -76 -170 -99 -190 -15 -13 -30 -14 -121 -4 -57 6 -123 17 -146 24 -40
12 -51 11 -146 -19 -103 -33 -211 -56 -367 -79 -112 -16 -115 -30 -28 -113
145 -139 310 -193 613 -200 88 -2 215 -6 282 -10 l121 -6 30 58 c16 33 36 79
43 104 7 27 34 71 67 110 105 123 206 300 244 424 34 112 16 319 -29 334 -7 2
-73 -54 -146 -125z"/>
<path d="M3220 1230 c-135 -60 -249 -116 -255 -124 -6 -10 -6 -19 1 -26 12
-12 158 -43 289 -60 133 -18 430 -8 577 19 211 39 216 51 48 127 -263 119
-390 174 -402 173 -7 0 -123 -49 -258 -109z"/>
</g>
</svg>
